<?xml version="1.0" encoding="UTF-8"?>
<svg xmlns="http://www.w3.org/2000/svg" viewBox="0 0 133 120" width="133" height="120">
<path d="M0.08 0.08C44.36 0.08 88.64 0.08 132.92 0.08C132.92 40.03 132.92 79.97 132.92 119.92C88.64 119.92 44.36 119.92 0.08 119.92C0.08 79.97 0.08 40.03 0.08 0.08ZM90.83 17.1C87.4 15.83 82.48 16.7 78.83 16.7C70.39 16.7 61.94 16.7 53.5 16.7C50.3 16.69 44.03 15.5 41.42 17.5C40.26 23.02 42.2 28.95 41.35 34.5C40.95 37.18 39.07 39.78 38.16 42.31C36.93 45.79 35.98 49.48 35.21 53.1C32.2 67.15 34.45 82.13 36.81 96.06C37.59 100.65 37.56 106.19 39.3 110.5C41.46 111.55 44.78 110.99 47.17 111.01C49.37 111.03 57 111.71 58.6 110.76C60.13 109.85 60.75 106.75 61.41 105.24C64.05 99.18 64.12 92.45 66.5 86.34C68.35 92.08 68.9 98.27 70.8 104.06C71.36 105.76 72.49 110.05 74.29 110.85C76.73 111.93 81.5 111.02 84.17 111.01C86.21 111.01 92.11 111.96 93.42 110.25C94.64 108.64 95.71 96.38 96.28 93.5C99 79.6 100.42 63.92 96.82 50.04C95.45 44.79 92.4 39.87 91.16 34.7C90 29.88 93.09 21.27 90.83 17.1Z" fill="#ffffff" fill-rule="evenodd" stroke="#ffffff" stroke-width="0.25" stroke-linejoin="round"/>
<path d="M90.83 17.1C93.09 21.27 90 29.88 91.16 34.7C92.4 39.87 95.45 44.79 96.82 50.04C100.42 63.92 99 79.6 96.28 93.5C95.71 96.38 94.64 108.64 93.42 110.25C92.11 111.96 86.21 111.01 84.17 111.01C81.5 111.02 76.73 111.93 74.29 110.85C72.49 110.05 71.36 105.76 70.8 104.06C68.9 98.27 68.35 92.08 66.5 86.34C64.12 92.45 64.05 99.18 61.41 105.24C60.75 106.75 60.13 109.85 58.6 110.76C57 111.71 49.37 111.03 47.17 111.01C44.78 110.99 41.46 111.55 39.3 110.5C37.56 106.19 37.59 100.65 36.81 96.06C34.45 82.13 32.2 67.15 35.21 53.1C35.98 49.48 36.93 45.79 38.16 42.31C39.07 39.78 40.95 37.18 41.35 34.5C42.2 28.95 40.26 23.02 41.42 17.5C44.03 15.5 50.3 16.69 53.5 16.7C61.94 16.7 70.39 16.7 78.83 16.7C82.48 16.7 87.4 15.83 90.83 17.1ZM48.58 20.46C47.22 20.46 45.86 20.46 44.49 20.46C43.64 22.16 43.97 24.55 45.44 25.78C46.46 25.78 47.48 25.78 48.5 25.78C49.36 24.03 49.4 22.31 48.58 20.46ZM64.83 20.4C60.05 20.4 55.26 20.4 50.48 20.4C47.63 26.51 54.58 25.32 57.96 27.21C60.19 28.46 62.01 31.3 64.5 31.91C65.68 30.72 65.43 22.23 64.83 20.4ZM82.07 20.42C77.06 20.42 72.04 20.42 67.03 20.42C67.03 24.22 67.03 28.02 67.03 31.83C69.94 31.6 71.84 28.57 74.37 27.21C76.93 25.83 79.92 26.49 82.07 24.5C82.07 23.14 82.07 21.78 82.07 20.42ZM87.9 20.44C86.28 20.44 84.66 20.44 83.04 20.44C83.04 22.01 83.04 23.59 83.04 25.17C84.86 25.8 86.05 25.95 87.9 25.33C87.9 23.7 87.9 22.07 87.9 20.44ZM46.57 27.42C43.75 28.31 44.72 35.18 44.7 37.5C44.64 45.86 46.27 65.18 59.79 58.96C65.4 56.38 65.25 51.52 65.22 46.17C65.21 43.17 66.2 38.34 64.89 35.58C62.64 30.89 51.48 25.87 46.57 27.42ZM82.24 27.46C76.51 28.38 70.8 30.51 67.41 35.58C66.19 37.39 66.97 41.4 66.97 43.5C66.95 51.12 65.94 57.23 74.82 59.74C86.95 63.17 87.78 43.38 87.75 36.17C87.74 34.09 88.07 30.38 87.04 28.5C86.19 26.95 83.66 27.24 82.24 27.46ZM42.17 45.31C40.45 45.87 40.42 49.99 39.77 51.6C37.91 56.26 35.56 73.37 37.57 77.83C40.08 78.91 40.11 75.26 40.73 73.52C42.45 68.69 43.2 62.9 45.97 58.5C44.7 54.1 43.44 49.7 42.17 45.31ZM90.5 45.96C88.97 47.21 89.21 48.76 88.55 50.42C85.58 57.94 88.13 65.53 91.6 72.49C92.78 74.86 92.71 77.89 94.5 79.94C95.81 78.31 95.01 73.61 95.01 71.5C95.01 64.88 94.65 51.05 90.5 45.96ZM47.5 60.12C45.26 62.13 44.76 66.23 43.81 68.96C40.1 79.59 38.89 84.14 40 95.5C40.3 98.52 40.27 104.65 42.5 106.87C44.97 106.35 45.63 101.33 46.41 99.24C49.64 90.54 47.39 79.64 48.63 70.5C48.94 68.21 50.56 60.45 47.5 60.12ZM63.5 59.95C61.97 59.87 57.72 61.26 57.14 62.94C56.72 64.17 58.92 76.41 59.35 78.5C59.74 80.45 59.35 85.53 61.5 85.7C62.17 77.12 62.83 68.53 63.5 59.95ZM75.08 62.5C73.53 61.3 70.23 59.29 68.5 60.47C68.61 66.5 69.68 72.49 70.04 78.5C70.17 80.7 69.82 84.3 71.5 85.94C72.69 78.13 73.89 70.31 75.08 62.5ZM89.5 106.84C91.88 105.48 91.92 99.38 92.08 96.83C92.35 92.34 93.56 88.11 92.9 83.52C92.29 79.2 90.21 75 89.08 70.8C88.39 68.26 86.75 59.78 83.5 60.21C81.94 63.14 83.6 68.32 83.87 71.52C84.61 80.18 83.49 89.74 85.67 98.16C86.38 100.88 86.97 105.24 89.5 106.84ZM51.5 62.16C49.55 64.5 50.08 69.31 50.01 72.17C49.82 80.71 50.47 89 51.08 97.5C51.24 99.85 51.21 107.43 53.61 108.17C55.77 107.3 56.42 103.19 57.28 101.13C61.39 91.23 58.42 82.97 56.29 72.83C55.6 69.55 56.33 61.27 51.5 62.16ZM78.5 61.98C76.47 64.59 76.24 69.89 75.89 73.16C75.07 80.96 70.43 90.4 73.77 98.08C74.84 100.57 76.43 108.13 79.5 108.01C81.15 105.75 80.85 100.59 81.05 97.83C81.69 89.36 82.57 81.04 82.21 72.5C82.07 69.01 83.42 61.79 78.5 61.98Z" fill="#4a516c" fill-rule="evenodd" stroke="#4a516c" stroke-width="0.25" stroke-linejoin="round"/>
<path d="M48.58 20.46C49.4 22.31 49.36 24.03 48.5 25.78C47.48 25.78 46.46 25.78 45.44 25.78C43.97 24.55 43.64 22.16 44.49 20.46C45.86 20.46 47.22 20.46 48.58 20.46ZM64.83 20.4C65.43 22.23 65.68 30.72 64.5 31.91C62.01 31.3 60.19 28.46 57.96 27.21C54.58 25.32 47.63 26.51 50.48 20.4C55.26 20.4 60.05 20.4 64.83 20.4ZM82.07 20.42C82.07 21.78 82.07 23.14 82.07 24.5C79.92 26.49 76.93 25.83 74.37 27.21C71.84 28.57 69.94 31.6 67.03 31.83C67.03 28.02 67.03 24.22 67.03 20.42C72.04 20.42 77.06 20.42 82.07 20.42ZM87.9 20.44C87.9 22.07 87.9 23.7 87.9 25.33C86.05 25.95 84.86 25.8 83.04 25.17C83.04 23.59 83.04 22.01 83.04 20.44C84.66 20.44 86.28 20.44 87.9 20.44ZM47.5 60.12C50.56 60.45 48.94 68.21 48.63 70.5C47.39 79.64 49.64 90.54 46.41 99.24C45.63 101.33 44.97 106.35 42.5 106.87C40.27 104.65 40.3 98.52 40 95.5C38.89 84.14 40.1 79.59 43.81 68.96C44.76 66.23 45.26 62.13 47.5 60.12ZM63.5 59.95C62.83 68.53 62.17 77.12 61.5 85.7C59.35 85.53 59.74 80.45 59.35 78.5C58.92 76.41 56.72 64.17 57.14 62.94C57.72 61.26 61.97 59.87 63.5 59.95ZM75.08 62.5C73.89 70.31 72.69 78.13 71.5 85.94C69.82 84.3 70.17 80.7 70.04 78.5C69.68 72.49 68.61 66.5 68.5 60.47C70.23 59.29 73.53 61.3 75.08 62.5ZM89.5 106.84C86.97 105.24 86.38 100.88 85.67 98.16C83.49 89.74 84.61 80.18 83.87 71.52C83.6 68.32 81.94 63.14 83.5 60.21C86.75 59.78 88.39 68.26 89.08 70.8C90.21 75 92.29 79.2 92.9 83.52C93.56 88.11 92.35 92.34 92.08 96.83C91.92 99.38 91.88 105.48 89.5 106.84ZM51.5 62.16C56.33 61.27 55.6 69.55 56.29 72.83C58.42 82.97 61.39 91.23 57.28 101.13C56.42 103.19 55.77 107.3 53.61 108.17C51.21 107.43 51.24 99.85 51.08 97.5C50.47 89 49.82 80.71 50.01 72.17C50.08 69.31 49.55 64.5 51.5 62.16ZM78.5 61.98C83.42 61.79 82.07 69.01 82.21 72.5C82.57 81.04 81.69 89.36 81.05 97.83C80.85 100.59 81.15 105.75 79.5 108.01C76.43 108.13 74.84 100.57 73.77 98.08C70.43 90.4 75.07 80.96 75.89 73.16C76.24 69.89 76.47 64.59 78.5 61.98Z" fill="#a2accb" fill-rule="evenodd" stroke="#a2accb" stroke-width="0.25" stroke-linejoin="round"/>
<path d="M46.57 27.42C51.48 25.87 62.64 30.89 64.89 35.58C66.2 38.34 65.21 43.17 65.22 46.17C65.25 51.52 65.4 56.38 59.79 58.96C46.27 65.18 44.64 45.86 44.7 37.5C44.72 35.18 43.75 28.31 46.57 27.42ZM82.24 27.46C83.66 27.24 86.19 26.95 87.04 28.5C88.07 30.38 87.74 34.09 87.75 36.17C87.78 43.38 86.95 63.17 74.82 59.74C65.94 57.23 66.95 51.12 66.97 43.5C66.97 41.4 66.19 37.39 67.41 35.58C70.8 30.51 76.51 28.38 82.24 27.46Z" fill="#fe004e" fill-rule="evenodd" stroke="#fe004e" stroke-width="0.25" stroke-linejoin="round"/>
<path d="M42.17 45.31C43.44 49.7 44.7 54.1 45.97 58.5C43.2 62.9 42.45 68.69 40.73 73.52C40.11 75.26 40.08 78.91 37.57 77.83C35.56 73.37 37.91 56.26 39.77 51.6C40.42 49.99 40.45 45.87 42.17 45.31ZM90.5 45.96C94.65 51.05 95.01 64.88 95.01 71.5C95.01 73.61 95.81 78.31 94.5 79.94C92.71 77.89 92.78 74.86 91.6 72.49C88.13 65.53 85.58 57.94 88.55 50.42C89.21 48.76 88.97 47.21 90.5 45.96Z" fill="#fd8467" fill-rule="evenodd" stroke="#fd8467" stroke-width="0.25" stroke-linejoin="round"/>
</svg>